<svg width="51" height="63" viewBox="0 0 51 63" xmlns="http://www.w3.org/2000/svg">
  <path fill-rule="evenodd" clip-rule="evenodd" d="M26.3811 14.6383C26.0602 14.6383 25.7426 14.5984 25.5441 14.5586C25.5044 14.3992 25.425 13.9178 25.425 13.4398C25.425 10.2427 27.056 7.08881 28.8095 5.09023C31.0394 2.49407 34.7415 0.535334 37.8448 0.415817C37.9242 0.777686 37.9639 1.21591 37.9639 1.65414C37.9639 4.81136 36.6107 7.96858 34.7018 10.2427C32.6704 12.7625 29.1668 14.6383 26.3811 14.6383M49.0702 21.4274C48.7129 21.7096 42.4236 25.2652 42.4236 33.1732C42.4236 42.3196 50.4266 45.5565 50.6648 45.6361C50.6251 45.8353 49.3911 50.0715 46.4433 54.3874C43.8164 58.182 41.0705 61.9767 36.8886 61.9767C32.7101 61.9767 31.6349 59.5365 26.8178 59.5365C22.1199 59.5365 20.4491 62.0564 16.6279 62.0564C12.8034 62.0564 10.1368 58.5406 7.07324 54.2247C3.52993 49.1519 0.664848 41.2838 0.664848 33.8107C0.664848 21.8292 8.42638 15.4749 16.0688 15.4749C20.1315 15.4749 23.5127 18.154 26.0602 18.154C28.4919 18.154 32.2734 15.3188 36.8886 15.3188C38.6421 15.3188 44.9314 15.4749 49.0702 21.4274" fill="black"/>
</svg>